<?xml version="1.0" encoding="UTF-8"?>
<svg id="Layer_2" data-name="Layer 2" xmlns="http://www.w3.org/2000/svg" xmlns:xlink="http://www.w3.org/1999/xlink" viewBox="0 0 77.29 73.89" width="24" height="25" fill="none">
  <defs>
    <linearGradient id="linear-gradient" x1="11.09" y1="59.33" x2="75.32" y2="20.25" gradientUnits="userSpaceOnUse">
      <stop offset="0" stop-color="#bc8d4d"/>
      <stop offset=".32" stop-color="#e0c77f"/>
      <stop offset=".69" stop-color="#f7eb9e"/>
      <stop offset=".97" stop-color="#faefa1"/>
    </linearGradient>
  </defs>
  <g id="Layer_1-2" data-name="Layer 1">
    <path d="m38.27,73.89c-.13,0-.27,0-.4,0-8.79-.25-15.79-3.29-21.4-9.31-2.53-2.71-4.96-5.56-7.31-8.31-1.18-1.38-2.35-2.76-3.55-4.13C1.2,47.08-.66,41.63.21,36.38c.87-5.21,4.35-9.72,10.07-13.03,13.64-7.9,25.06-14.38,35.91-20.41,5.97-3.32,11.98-3.84,16.94-1.47,4.91,2.34,8.24,7.27,9.39,13.87,1.68,9.65,3.19,19.35,4.45,27.57,1.52,9.95-2.6,14.56-6.33,16.68-5.37,3.06-10.89,5.74-15.11,7.73-1.15.54-2.35,1.19-3.62,1.87-4.11,2.21-8.75,4.71-13.65,4.71ZM57.23,3.77c-2.57,0-5.37.8-8.22,2.39-11.25,6.25-23.08,12.97-37.22,21.16-4.56,2.64-7.3,6.06-7.94,9.89-.64,3.88.88,8.06,4.39,12.09,1.25,1.44,2.49,2.89,3.72,4.34,2.4,2.82,4.88,5.73,7.43,8.46,4.84,5.18,10.91,7.8,18.58,8.02h0c3.85.12,7.99-2.11,11.99-4.26,1.38-.74,2.69-1.45,4-2.07,4.29-2.03,9.91-4.75,15.34-7.84,3.57-2.03,4.91-6.08,4.01-12.03-1.3-8.51-2.86-18.55-4.6-28.53-.9-5.15-3.34-8.92-6.88-10.61-1.41-.67-2.96-1-4.61-1Z" fill="url(#linear-gradient)"/>
  </g>
</svg>